<?xml version="1.0" encoding="UTF-8"?>
<svg id="Layer_2" data-name="Layer 2" xmlns="http://www.w3.org/2000/svg" width="13" height="35" viewBox="0 0 13 35">
  <defs>
    <style>
      .cls-1 {
        fill: #1a2400;
      }

      .cls-2 {
        fill: #fff;
      }
    </style>
  </defs>
  <g id="Layer_1-2" data-name="Layer 1">
    <polygon class="cls-1" points="13 3 13 7 12 7 12 8 9 8 9 10 10 10 10 11 11 11 11 13 12 13 12 23 11 23 11 18 10 18 10 22 9 22 9 35 8 35 8 23 6 23 6 35 5 35 5 22 3 22 3 18 2 18 2 23 1 23 1 11 3 11 3 10 5 10 5 8 1 8 1 7 0 7 0 3 1 3 1 1 3 1 3 0 11 0 11 1 12 1 12 3 13 3"/>
    <rect class="cls-2" x="10" y="5" width="1" height="1"/>
    <rect class="cls-2" x="6" y="5" width="1" height="1"/>
  </g>
</svg>