<?xml version="1.0" encoding="UTF-8"?>
<svg id="Layer_2" data-name="Layer 2" xmlns="http://www.w3.org/2000/svg" width="22" height="23" viewBox="0 0 22 23">
  <defs>
    <style>
      .cls-1 {
        fill: #1a2400;
      }

      .cls-2 {
        fill: #fff;
      }
    </style>
  </defs>
  <g id="Layer_1-2" data-name="Layer 1">
    <path class="cls-1" d="M18,19v-1h-1v-1h-2v1h-2v2h-1v2h-1v1h-2v-1h-1v-4h-1v-1h-1v-1h-1v1h-1v1h-1v2h-1v1h-1v-1H0v-4h1v-3h1v-4h1v-1h1v-1h1v-1h4v-3h1V1h1V0h2v1h1v2h3v-1h1v-1h2v5h1v6s-.72.03-1,0c-.06.2,0,1,0,1h-1v2h1v1h1v2h1v2h-1v1h-1v-1h-1v-1h-1Z"/>
    <rect class="cls-2" x="18" y="10" width="1" height="1"/>
    <rect class="cls-2" x="15" y="10" width="1" height="1"/>
  </g>
</svg>