<?xml version="1.0" encoding="UTF-8"?>
<svg id="Layer_2" data-name="Layer 2" xmlns="http://www.w3.org/2000/svg" width="12" height="10" viewBox="0 0 12 10">
  <defs>
    <style>
      .cls-1 {
        fill: #69822b;
      }

      .cls-2 {
        fill: #1a2400;
      }

      .cls-3 {
        fill: #495c19;
      }
    </style>
  </defs>
  <g id="Layer_3" data-name="Layer 3">
    <g>
      <rect class="cls-1" x="1" y="8" width="1" height="1" transform="translate(10 7) rotate(90)"/>
      <rect class="cls-1" x="5.5" y="2.5" width="1" height="10" transform="translate(13.5 1.5) rotate(90)"/>
      <rect class="cls-1" x="2" y="9" width="8" height="1" transform="translate(12 19) rotate(180)"/>
      <rect class="cls-1" x="10" y="8" width="1" height="1" transform="translate(19 -2) rotate(90)"/>
      <rect class="cls-1" x="1" y="2" width="1" height="1" transform="translate(-1 4) rotate(-90)"/>
      <rect class="cls-1" x="1" y="1" width="1" height="1" transform="translate(0 3) rotate(-90)"/>
      <rect class="cls-3" x="4.5" y="-1.5" width="3" height="8" transform="translate(3.5 8.5) rotate(-90)"/>
      <rect class="cls-3" x="5.5" y="4.5" width="1" height="8" transform="translate(-2.5 14.5) rotate(-90)"/>
      <rect class="cls-1" x="1" y="3" width="1" height="1" transform="translate(-2 5) rotate(-90)"/>
      <rect class="cls-1" x="5.5" y="-.5" width="1" height="10" transform="translate(1.5 10.5) rotate(-90)"/>
      <rect class="cls-2" x="5.5" y="-.5" width="1" height="12" transform="translate(.5 11.5) rotate(-90)"/>
      <rect class="cls-2" x="5.5" y=".5" width="1" height="12" transform="translate(-.5 12.5) rotate(-90)"/>
      <rect class="cls-1" x="2" width="8" height="1" transform="translate(12 1) rotate(180)"/>
      <rect class="cls-1" x="10" y="2" width="1" height="1" transform="translate(8 13) rotate(-90)"/>
      <rect class="cls-1" x="10" y="1" width="1" height="1" transform="translate(9 12) rotate(-90)"/>
      <rect class="cls-2" x="8" y="2" width="1" height="1" transform="translate(6 11) rotate(-90)"/>
      <rect class="cls-2" x="7" y="3" width="1" height="1" transform="translate(4 11) rotate(-90)"/>
      <rect class="cls-3" x="4" y="5" width="1" height="1" transform="translate(-1 10) rotate(-90)"/>
      <rect class="cls-3" x="6" y="6" width="1" height="1" transform="translate(0 13) rotate(-90)"/>
      <rect class="cls-3" x="9" y="5" width="1" height="1" transform="translate(4 15) rotate(-90)"/>
      <rect class="cls-2" x="5" y="1" width="1" height="1" transform="translate(4 7) rotate(-90)"/>
      <rect class="cls-2" x="3" y="2" width="1" height="1" transform="translate(1 6) rotate(-90)"/>
      <rect class="cls-1" x="10" y="3" width="1" height="1" transform="translate(7 14) rotate(-90)"/>
    </g>
  </g>
</svg>