<?xml version="1.0" encoding="UTF-8"?>
<svg id="Layer_2" data-name="Layer 2" xmlns="http://www.w3.org/2000/svg" width="12" height="12" viewBox="0 0 12 12">
  <defs>
    <style>
      .cls-1 {
        fill: #69822b;
      }

      .cls-2 {
        fill: #1a2400;
      }

      .cls-3 {
        fill: #425c00;
      }
    </style>
  </defs>
  <g id="Layer_3" data-name="Layer 3">
    <polygon class="cls-1" points="11 1 11 5 10 5 10 7 2 7 2 4 3 4 3 1 11 1"/>
    <polygon class="cls-1" points="6 9 6 10 9 10 9 11 1 11 1 10 4 10 4 9 1 9 1 8 9 8 9 9 6 9"/>
    <polygon class="cls-3" points="12 0 12 5 11 5 11 1 3 1 3 4 2 4 2 7 10 7 10 5 11 5 11 8 10 8 10 11 11 11 11 12 1 12 1 11 9 11 9 10 6 10 6 9 9 9 9 8 1 8 1 9 4 9 4 10 1 10 1 11 0 11 0 6 1 6 1 2 2 2 2 0 12 0"/>
    <rect class="cls-1" x="10" y="8" width="1" height="3"/>
    <rect class="cls-3" x="11" y="8" width="1" height="1"/>
    <rect class="cls-1" x="11" y="5" width="1" height="3"/>
    <rect class="cls-3" x="4" y="2" width="6" height="1"/>
    <rect class="cls-3" x="3" y="5" width="6" height="1"/>
    <rect class="cls-2" y="8" width="1" height="3"/>
    <rect class="cls-2" x="1" y="7" width="10" height="1"/>
    <rect class="cls-2" x="1" y="11" width="10" height="1"/>
  </g>
</svg>