<?xml version="1.0" encoding="UTF-8"?>
<svg id="Layer_2" data-name="Layer 2" xmlns="http://www.w3.org/2000/svg" width="12" height="9" viewBox="0 0 12 9">
  <defs>
    <style>
      .cls-1 {
        fill: #69822b;
      }

      .cls-2 {
        fill: #1a2400;
      }

      .cls-3 {
        fill: #425c00;
      }
    </style>
  </defs>
  <g id="Layer_3" data-name="Layer 3">
    <g>
      <rect class="cls-2" x="9" y="8" width="1" height="1" transform="translate(19 17) rotate(180)"/>
      <rect class="cls-3" x="9" y="7" width="1" height="1" transform="translate(19 15) rotate(180)"/>
      <rect class="cls-2" x="10" y="7" width="1" height="1" transform="translate(21 15) rotate(180)"/>
      <rect class="cls-3" x="9" y="6" width="1" height="1" transform="translate(3 16) rotate(-90)"/>
      <rect class="cls-3" x="8" y="6" width="1" height="1" transform="translate(2 15) rotate(-90)"/>
      <rect class="cls-3" x="7" y="6" width="1" height="1" transform="translate(1 14) rotate(-90)"/>
      <rect class="cls-3" x="10" y="6" width="1" height="1" transform="translate(4 17) rotate(-90)"/>
      <rect class="cls-3" x="9" y="5" width="1" height="1" transform="translate(4 15) rotate(-90)"/>
      <rect class="cls-3" x="4" y="1" width="1" height="1" transform="translate(3 6) rotate(-90)"/>
      <rect class="cls-1" x="9.5" y="2.5" width="1" height="2" transform="translate(6.5 13.5) rotate(-90)"/>
      <rect class="cls-3" x="4.5" y="-.5" width="1" height="8" transform="translate(1.5 8.5) rotate(-90)"/>
      <rect class="cls-3" x="5.5" y="-.5" width="1" height="10" transform="translate(1.5 10.5) rotate(-90)"/>
      <rect class="cls-2" x="7" y="7" width="1" height="1" transform="translate(0 15) rotate(-90)"/>
      <rect class="cls-2" x="8" y="8" width="1" height="1" transform="translate(0 17) rotate(-90)"/>
      <rect class="cls-3" x="8" y="7" width="1" height="1" transform="translate(1 16) rotate(-90)"/>
      <rect class="cls-2" x="2" y="8" width="1" height="1" transform="translate(5 17) rotate(180)"/>
      <rect class="cls-3" x="2" y="7" width="1" height="1" transform="translate(5 15) rotate(180)"/>
      <rect class="cls-2" x="4" y="7" width="1" height="1" transform="translate(9 15) rotate(180)"/>
      <rect class="cls-2" x="3" y="8" width="1" height="1" transform="translate(7 17) rotate(180)"/>
      <rect class="cls-3" x="3" y="7" width="1" height="1" transform="translate(7 15) rotate(180)"/>
      <rect class="cls-3" x="1" y="6" width="1" height="1" transform="translate(-5 8) rotate(-90)"/>
      <rect class="cls-3" x="2" y="6" width="1" height="1" transform="translate(-4 9) rotate(-90)"/>
      <rect class="cls-3" x="3" y="6" width="1" height="1" transform="translate(-3 10) rotate(-90)"/>
      <rect class="cls-3" x="4.5" y="5.5" width="1" height="2" transform="translate(-1.5 11.5) rotate(-90)"/>
      <rect class="cls-3" x="6" y="6" width="1" height="1" transform="translate(0 13) rotate(-90)"/>
      <rect class="cls-3" x="1" y="5" width="1" height="1" transform="translate(-4 7) rotate(-90)"/>
      <rect class="cls-3" x="4" y="2" width="1" height="1" transform="translate(2 7) rotate(-90)"/>
      <rect class="cls-3" x="10" y="5" width="1" height="1" transform="translate(5 16) rotate(-90)"/>
      <rect class="cls-1" x="5" y="-2" width="1" height="5" transform="translate(5 6) rotate(-90)"/>
      <rect class="cls-1" x="7.5" y="1.5" width="1" height="2" transform="translate(5.5 10.5) rotate(-90)"/>
      <rect class="cls-1" y="6" width="1" height="1" transform="translate(-6 7) rotate(-90)"/>
      <rect class="cls-1" x="1" y="2" width="1" height="1" transform="translate(-1 4) rotate(-90)"/>
      <rect class="cls-1" x="2" y="1" width="1" height="1" transform="translate(1 4) rotate(-90)"/>
      <rect class="cls-1" x="7" y="1" width="1" height="1" transform="translate(6 9) rotate(-90)"/>
      <rect class="cls-1" y="5" width="1" height="1" transform="translate(-5 6) rotate(-90)"/>
      <rect class="cls-1" y="3" width="1" height="1" transform="translate(-3 4) rotate(-90)"/>
      <rect class="cls-1" y="4" width="1" height="1" transform="translate(-4 5) rotate(-90)"/>
      <rect class="cls-1" x="11" y="6" width="1" height="1" transform="translate(5 18) rotate(-90)"/>
      <rect class="cls-1" x="11" y="5" width="1" height="1" transform="translate(6 17) rotate(-90)"/>
      <rect class="cls-1" x="11" y="4" width="1" height="1" transform="translate(7 16) rotate(-90)"/>
      <rect class="cls-3" x="5" y="2" width="1" height="7" transform="translate(0 11) rotate(-90)"/>
      <rect class="cls-2" x="1" y="7" width="1" height="1" transform="translate(-6 9) rotate(-90)"/>
    </g>
  </g>
</svg>