<?xml version="1.0" encoding="UTF-8"?>
<svg id="Layer_2" data-name="Layer 2" xmlns="http://www.w3.org/2000/svg" width="12" height="12" viewBox="0 0 12 12">
  <defs>
    <style>
      .cls-1 {
        fill: #69822b;
      }

      .cls-2 {
        fill: #495c19;
      }
    </style>
  </defs>
  <g id="Layer_3" data-name="Layer 3">
    <g>
      <rect class="cls-1" x="5" y="11" width="2" height="1"/>
      <rect class="cls-1" y="5" width="1" height="2"/>
      <rect class="cls-1" x="11" y="5" width="1" height="2"/>
      <rect class="cls-1" x="5" width="2" height="1"/>
      <rect class="cls-1" x="1" y="3" width="1" height="2"/>
      <rect class="cls-1" x="2" y="2" width="1" height="1"/>
      <rect class="cls-1" x="9" y="2" width="1" height="1" transform="translate(7 12) rotate(-90)"/>
      <rect class="cls-1" x="3" y="1" width="2" height="1"/>
      <rect class="cls-1" x="7" y="1" width="2" height="1"/>
      <rect class="cls-2" x="7.5" y="1.5" width="1" height="2" transform="translate(5.5 10.5) rotate(-90)"/>
      <polygon class="cls-2" points="11 5 11 7 10 7 10 9 9 9 9 10 7 10 7 11 5 11 5 10 3 10 3 9 2 9 2 7 1 7 1 5 2 5 2 3 3 3 3 2 5 2 5 1 7 1 7 2 6 2 6 3 7 3 7 4 8 4 8 5 9 5 9 6 10 6 10 5 11 5"/>
      <rect class="cls-2" x="8.5" y="3.5" width="2" height="1" transform="translate(5.5 13.5) rotate(-90)"/>
      <rect class="cls-1" x="10" y="3" width="1" height="2"/>
      <rect class="cls-1" x="10" y="7" width="1" height="2"/>
      <rect class="cls-1" x="9" y="9" width="1" height="1"/>
      <rect class="cls-1" x="7" y="10" width="2" height="1"/>
      <rect class="cls-1" x="3" y="10" width="2" height="1"/>
      <rect class="cls-1" x="2" y="9" width="1" height="1"/>
      <rect class="cls-1" x="1" y="7" width="1" height="2"/>
    </g>
  </g>
</svg>