<?xml version="1.0" encoding="UTF-8"?>
<svg id="Layer_2" data-name="Layer 2" xmlns="http://www.w3.org/2000/svg" width="100" height="50" viewBox="0 0 100 50">
  <defs>
    <style>
      .cls-1 {
        fill: #bac49f;
      }

      .cls-2 {
        fill: #1a2400;
      }
    </style>
  </defs>
  <g id="Background_elements" data-name="Background elements">
    <rect class="cls-1" width="100" height="50"/>
    <rect class="cls-2" x="40" y="49" width="9" height="1"/>
    <polygon class="cls-2" points="99 48 100 48 100 50 98 50 98 49 60 49 60 48 98 48 98 2 60 2 60 1 98 1 98 0 100 0 100 2 99 2 99 48"/>
    <rect class="cls-2" x="51" y="49" width="9" height="1"/>
    <rect class="cls-2" x="51" width="9" height="1"/>
    <polygon class="cls-2" points="2 1 40 1 40 2 2 2 2 48 40 48 40 49 2 49 2 50 0 50 0 48 1 48 1 2 0 2 0 0 2 0 2 1"/>
    <rect class="cls-2" x="40" width="9" height="1"/>
  </g>
</svg>