<?xml version="1.0" encoding="UTF-8"?>
<svg id="Layer_2" data-name="Layer 2" xmlns="http://www.w3.org/2000/svg" width="46" height="46" viewBox="0 0 46 46">
  <defs>
    <style>
      .cls-1 {
        fill: #bac49f;
      }

      .cls-2 {
        fill: #1a2400;
      }

      .cls-3 {
        fill: #69822b;
      }

      .cls-4 {
        fill: #425c00;
      }
    </style>
  </defs>
  <g id="Layer_5" data-name="Layer 5">
    <g>
      <rect class="cls-3" width="46" height="46"/>
      <polygon class="cls-4" points="46 0 46 24 45 24 45 23 43 23 43 22 40 22 40 21 37 21 37 20 33 20 33 19 13 19 13 20 9 20 9 21 6 21 6 22 3 22 3 23 1 23 1 24 0 24 0 0 46 0"/>
      <polygon class="cls-2" points="46 0 46 7 40.01 7 40.01 6 5.99 6 5.99 7 0 7 0 0 46 0"/>
      <polygon class="cls-4" points="13 46 13 45 9 45 9 44 6 44 6 43 3 43 3 42 1 42 1 41 0 41 0 46 13 46"/>
      <polygon class="cls-4" points="33 46 33 45 37 45 37 44 40 44 40 43 43 43 43 42 45 42 45 41 46 41 46 46 33 46"/>
      <polygon class="cls-1" points="9.5 25 6 25 6 26 4 26 4.03 27 3.06 27 3.06 28 2 28 2 30 1 30 1 32 1.03 34 2 34 2 36 3.06 36 3.06 37 4 37 4 38 5 38 5 39 7 39 7 40 9 40 9 41 11 41 11 42 14 42 14 43 20 43 20 44 26 44 26 43 32 43 32 42 35 42 35 41 37 41 37 40 39 40 39 39 41 39 41 38 42 38 42 37 42.94 37 42.94 36 44 36 44 34 44.97 34 45 32 45 30 44 30 44 28 42.94 28 42.94 27 41.97 27 42 26 40 26 40 25 36.5 25 9.5 25"/>
      <rect class="cls-4" x="44" y="6" width="1" height="1" transform="translate(51 -38) rotate(90)"/>
      <rect class="cls-4" x="41" y="6" width="1" height="1" transform="translate(48 -35) rotate(90)"/>
      <rect class="cls-2" x="43" y="8" width="1" height="1" transform="translate(52 -35) rotate(90)"/>
      <rect class="cls-2" x="40" y="8" width="1" height="1" transform="translate(49 -32) rotate(90)"/>
      <rect class="cls-2" x="38" y="7" width="1" height="1" transform="translate(46 -31) rotate(90)"/>
      <rect class="cls-2" x="35" y="7" width="1" height="1" transform="translate(43 -28) rotate(90)"/>
      <rect class="cls-2" x="32" y="7" width="1" height="1" transform="translate(40 -25) rotate(90)"/>
      <rect class="cls-2" x="29" y="7" width="1" height="1" transform="translate(37 -22) rotate(90)"/>
      <rect class="cls-2" x="26" y="7" width="1" height="1" transform="translate(34 -19) rotate(90)"/>
      <rect class="cls-2" x="10" y="7" width="1" height="1" transform="translate(18 -3) rotate(90)"/>
      <rect class="cls-2" x="7" y="7" width="1" height="1" transform="translate(15 0) rotate(90)"/>
      <rect class="cls-2" x="4" y="8" width="1" height="1" transform="translate(13 4) rotate(90)"/>
      <rect class="cls-2" x="1" y="8" width="1" height="1" transform="translate(10 7) rotate(90)"/>
      <rect class="cls-2" x="3" y="10" width="1" height="1" transform="translate(14 7) rotate(90)"/>
      <rect class="cls-2" x="6" y="10" width="1" height="1" transform="translate(17 4) rotate(90)"/>
      <rect class="cls-2" x="9" y="9" width="1" height="1" transform="translate(19) rotate(90)"/>
      <rect class="cls-2" x="31" y="9" width="1" height="1" transform="translate(41 -22) rotate(90)"/>
      <rect class="cls-2" x="34" y="10" width="1" height="1" transform="translate(45 -24) rotate(90)"/>
      <rect class="cls-2" x="38" y="11" width="1" height="1" transform="translate(50 -27) rotate(90)"/>
      <rect class="cls-2" x="43" y="12" width="1" height="1" transform="translate(56 -31) rotate(90)"/>
      <rect class="cls-2" x="41" y="10" width="1" height="1" transform="translate(52 -31) rotate(90)"/>
      <rect class="cls-2" x="1" y="14" width="1" height="1" transform="translate(16 13) rotate(90)"/>
      <rect class="cls-4" x="38" y="5" width="1" height="1" transform="translate(44 -33) rotate(90)"/>
      <rect class="cls-4" x="35" y="5" width="1" height="1" transform="translate(41 -30) rotate(90)"/>
      <rect class="cls-4" x="32" y="5" width="1" height="1" transform="translate(38 -27) rotate(90)"/>
      <rect class="cls-4" x="29" y="5" width="1" height="1" transform="translate(35 -24) rotate(90)"/>
      <rect class="cls-4" x="26" y="5" width="1" height="1" transform="translate(32 -21) rotate(90)"/>
      <rect class="cls-4" x="23" y="5" width="1" height="1" transform="translate(29 -18) rotate(90)"/>
      <rect class="cls-4" x="20" y="5" width="1" height="1" transform="translate(26 -15) rotate(90)"/>
      <rect class="cls-4" x="17" y="5" width="1" height="1" transform="translate(23 -12) rotate(90)"/>
      <rect class="cls-4" x="14" y="5" width="1" height="1" transform="translate(20 -9) rotate(90)"/>
      <rect class="cls-4" x="11" y="5" width="1" height="1" transform="translate(17 -6) rotate(90)"/>
      <rect class="cls-4" x="8" y="5" width="1" height="1" transform="translate(14 -3) rotate(90)"/>
      <rect class="cls-4" x="5" y="6" width="1" height="1" transform="translate(12 1) rotate(90)"/>
      <rect class="cls-4" x="2" y="6" width="1" height="1" transform="translate(9 4) rotate(90)"/>
      <rect class="cls-4" y="5" width="1" height="1" transform="translate(6 5) rotate(90)"/>
      <rect class="cls-4" x="4" y="5" width="1" height="1" transform="translate(10 1) rotate(90)"/>
      <rect class="cls-4" x="5" y="4" width="1" height="1" transform="translate(10 -1) rotate(90)"/>
      <rect class="cls-4" x="10" y="4" width="1" height="1" transform="translate(15 -6) rotate(90)"/>
      <rect class="cls-4" x="14" y="4" width="1" height="1" transform="translate(19 -10) rotate(90)"/>
      <rect class="cls-4" x="17" y="4" width="1" height="1" transform="translate(22 -13) rotate(90)"/>
      <rect class="cls-4" x="22" y="4" width="1" height="1" transform="translate(27 -18) rotate(90)"/>
      <rect class="cls-4" x="27" y="4" width="1" height="1" transform="translate(32 -23) rotate(90)"/>
      <rect class="cls-4" x="31" y="4" width="1" height="1" transform="translate(36 -27) rotate(90)"/>
      <rect class="cls-4" x="34" y="4" width="1" height="1" transform="translate(39 -30) rotate(90)"/>
      <rect class="cls-4" x="39" y="4" width="1" height="1" transform="translate(44 -35) rotate(90)"/>
      <rect class="cls-4" x="42" y="5" width="1" height="1" transform="translate(48 -37) rotate(90)"/>
      <rect class="cls-4" x="45" y="5" width="1" height="1" transform="translate(51 -40) rotate(90)"/>
      <rect class="cls-4" x="44" y="3" width="1" height="1" transform="translate(48 -41) rotate(90)"/>
      <rect class="cls-4" x="42" y="2" width="1" height="1" transform="translate(45 -40) rotate(90)"/>
      <rect class="cls-4" x="38" y="2" width="1" height="1" transform="translate(41 -36) rotate(90)"/>
      <rect class="cls-4" x="35" y="2" width="1" height="1" transform="translate(38 -33) rotate(90)"/>
      <rect class="cls-4" x="32" y="2" width="1" height="1" transform="translate(35 -30) rotate(90)"/>
      <rect class="cls-4" x="29" y="1" width="1" height="1" transform="translate(31 -28) rotate(90)"/>
      <rect class="cls-4" x="24" y="3" width="1" height="1" transform="translate(28 -21) rotate(90)"/>
      <rect class="cls-4" x="19" y="2" width="1" height="1" transform="translate(22 -17) rotate(90)"/>
      <rect class="cls-4" x="15" y="1" width="1" height="1" transform="translate(17 -14) rotate(90)"/>
      <rect class="cls-4" x="12" y="2" width="1" height="1" transform="translate(15 -10) rotate(90)"/>
      <rect class="cls-4" x="7" y="3" width="1" height="1" transform="translate(11 -4) rotate(90)"/>
      <rect class="cls-4" x="4" y="2" width="1" height="1" transform="translate(7 -2) rotate(90)"/>
      <rect class="cls-4" x="1" y="3" width="1" height="1" transform="translate(5 2) rotate(90)"/>
      <rect class="cls-4" x="2" y="1" width="1" height="1" transform="translate(4 -1) rotate(90)"/>
      <rect class="cls-4" x="7" width="1" height="1" transform="translate(8 -7) rotate(90)"/>
      <rect class="cls-4" x="13" width="1" height="1" transform="translate(14 -13) rotate(90)"/>
      <rect class="cls-4" x="18" width="1" height="1" transform="translate(19 -18) rotate(90)"/>
      <rect class="cls-4" x="23" width="1" height="1" transform="translate(24 -23) rotate(90)"/>
      <rect class="cls-4" x="27" width="1" height="1" transform="translate(28 -27) rotate(90)"/>
      <rect class="cls-4" x="32" width="1" height="1" transform="translate(33 -32) rotate(90)"/>
      <rect class="cls-4" x="35" width="1" height="1" transform="translate(36 -35) rotate(90)"/>
      <rect class="cls-4" x="40" width="1" height="1" transform="translate(41 -40) rotate(90)"/>
      <rect class="cls-4" x="44" width="1" height="1" transform="translate(45 -44) rotate(90)"/>
      <polygon class="cls-4" points="39 16 39 27 38 27 38 29 37 29 37 31 36 31 36 33 35 33 35 35 34 35 34 37 33 37 33 39 32 39 32 41 31 41 31 30 32 30 32 28 33 28 33 26 34 26 34 24 35 24 35 22 36 22 36 20 37 20 37 18 38 18 38 16 39 16"/>
      <polygon class="cls-2" points="39 24 39 27 38 27 38 29 37 29 37 31 36 31 36 33 35 33 35 35 34 35 34 37 33 37 33 39 32 39 32 41 31 41 31 38 32 38 32 36 33 36 33 34 34 34 34 32 35 32 35 30 36 30 36 28 37 28 37 26 38 26 38 24 39 24"/>
      <polygon class="cls-3" points="31 32 31 41 29 41 29 40 27 40 27 39 25 39 25 38 23 38 23 37 21 37 21 36 19 36 19 35 17 35 17 34 15 34 15 33 13 33 13 32 11 32 11 31 9 31 9 30 7 30 7 21 9 21 9 22 11 22 11 23 13 23 13 24 15 24 15 25 17 25 17 26 19 26 19 27 21 27 21 28 23 28 23 29 25 29 25 30 27 30 27 31 29 31 29 32 31 32"/>
      <polygon class="cls-4" points="31 39 31 41 29 41 29 40 27 40 27 39 25 39 25 38 23 38 23 37 21 37 21 36 19 36 19 35 17 35 17 34 15 34 15 33 13 33 13 32 11 32 11 31 9 31 9 30 7 30 7 28 9 28 9 29 11 29 11 30 13 30 13 31 15 31 15 32 17 32 17 33 19 33 19 34 21 34 21 35 23 35 23 36 25 36 25 37 27 37 27 38 29 38 29 39 31 39"/>
      <rect class="cls-2" x="34.5" y="27.5" width="2" height="1" transform="translate(63.5 -7.5) rotate(90)"/>
      <rect class="cls-2" x="33.5" y="29.5" width="2" height="1" transform="translate(64.5 -4.5) rotate(90)"/>
      <rect class="cls-2" x="32.5" y="31.5" width="2" height="1" transform="translate(65.5 -1.5) rotate(90)"/>
      <rect class="cls-2" x="31.5" y="33.5" width="2" height="1" transform="translate(66.5 1.5) rotate(90)"/>
      <rect class="cls-2" x="30.5" y="35.5" width="2" height="1" transform="translate(67.5 4.5) rotate(90)"/>
      <rect class="cls-4" x="29.5" y="37.5" width="2" height="1" transform="translate(68.5 7.5) rotate(90)"/>
      <rect class="cls-4" x="27.5" y="36.5" width="2" height="1" transform="translate(65.5 8.5) rotate(90)"/>
      <rect class="cls-4" x="25.5" y="35.5" width="2" height="1" transform="translate(62.5 9.5) rotate(90)"/>
      <rect class="cls-4" x="23.5" y="34.5" width="2" height="1" transform="translate(59.5 10.5) rotate(90)"/>
      <rect class="cls-4" x="21.5" y="33.5" width="2" height="1" transform="translate(56.5 11.5) rotate(90)"/>
      <rect class="cls-4" x="19.5" y="32.5" width="2" height="1" transform="translate(53.5 12.5) rotate(90)"/>
      <rect class="cls-4" x="17.5" y="31.5" width="2" height="1" transform="translate(50.5 13.5) rotate(90)"/>
      <rect class="cls-4" x="15.5" y="30.5" width="2" height="1" transform="translate(47.5 14.5) rotate(90)"/>
      <rect class="cls-4" x="13.5" y="29.5" width="2" height="1" transform="translate(44.5 15.5) rotate(90)"/>
      <rect class="cls-4" x="11.5" y="28.5" width="2" height="1" transform="translate(41.5 16.5) rotate(90)"/>
      <rect class="cls-4" x="9.5" y="27.5" width="2" height="1" transform="translate(38.5 17.5) rotate(90)"/>
      <rect class="cls-4" x="7.5" y="26.5" width="2" height="1" transform="translate(35.5 18.5) rotate(90)"/>
      <rect class="cls-2" x="35.5" y="25.5" width="2" height="1" transform="translate(62.5 -10.5) rotate(90)"/>
      <rect class="cls-2" x="36.5" y="23.5" width="2" height="1" transform="translate(61.5 -13.5) rotate(90)"/>
      <rect class="cls-2" x="37.5" y="21.5" width="2" height="1" transform="translate(60.5 -16.5) rotate(90)"/>
      <g>
        <polygon class="cls-2" points="39 15 39 16 38 16 38 18 37 18 37 20 36 20 36 22 35 22 35 24 34 24 34 26 33 26 33 28 32 28 32 30 31 30 31 32 29 32 29 31 27 31 27 30 25 30 25 29 23 29 23 28 21 28 21 27 19 27 19 26 17 26 17 25 15 25 15 24 13 24 13 23 11 23 11 22 9 22 9 21 7 21 7 19 8 19 8 17 9 17 9 15 10 15 10 13 11 13 11 11 12 11 12 9 13 9 13 7 14 7 14 5 15 5 15 4 17 4 17 5 19 5 19 6 21 6 21 7 23 7 23 8 25 8 25 9 27 9 27 10 29 10 29 11 31 11 31 12 33 12 33 13 35 13 35 14 37 14 37 15 39 15"/>
        <polygon class="cls-3" points="39 15 39 16 38 16 38 18 37 18 37 20 36 20 36 22 33 22 33 21 31 21 31 20 29 20 29 19 27 19 27 18 25 18 25 17 23 17 23 16 21 16 21 15 19 15 19 14 17 14 17 13 15 13 15 4 17 4 17 5 19 5 19 6 21 6 21 7 23 7 23 8 25 8 25 9 27 9 27 10 29 10 29 11 31 11 31 12 33 12 33 13 35 13 35 14 37 14 37 15 39 15"/>
        <polygon class="cls-4" points="36 21 36 22 33 22 33 21 31 21 31 20 29 20 29 19 27 19 27 18 25 18 25 17 23 17 23 16 21 16 21 15 19 15 19 14 17 14 17 13 15 13 15 11 17 11 17 12 19 12 19 13 21 13 21 14 23 14 23 15 25 15 25 16 27 16 27 17 29 17 29 18 31 18 31 19 33 19 33 20 35 20 35 21 36 21"/>
        <rect class="cls-4" x="36" y="19" width="1" height="1"/>
        <rect class="cls-4" x="33.5" y="18.5" width="2" height="1" transform="translate(53.5 -15.5) rotate(90)"/>
        <rect class="cls-4" x="31.5" y="17.5" width="2" height="1" transform="translate(50.5 -14.5) rotate(90)"/>
        <rect class="cls-4" x="29.5" y="16.5" width="2" height="1" transform="translate(47.5 -13.5) rotate(90)"/>
        <rect class="cls-4" x="27.5" y="15.5" width="2" height="1" transform="translate(44.5 -12.5) rotate(90)"/>
        <rect class="cls-4" x="25.5" y="14.5" width="2" height="1" transform="translate(41.5 -11.5) rotate(90)"/>
        <rect class="cls-4" x="23.5" y="13.5" width="2" height="1" transform="translate(38.5 -10.5) rotate(90)"/>
        <rect class="cls-4" x="21.5" y="12.5" width="2" height="1" transform="translate(35.5 -9.5) rotate(90)"/>
        <rect class="cls-4" x="19.5" y="11.5" width="2" height="1" transform="translate(32.5 -8.5) rotate(90)"/>
        <rect class="cls-4" x="17.5" y="10.5" width="2" height="1" transform="translate(29.5 -7.5) rotate(90)"/>
        <rect class="cls-4" x="15.5" y="9.5" width="2" height="1" transform="translate(26.5 -6.5) rotate(90)"/>
        <polygon class="cls-3" points="15 5 15 16 14 16 14 18 13 18 13 20 12 20 12 22 9 22 9 21 7 21 7 19 8 19 8 17 9 17 9 15 10 15 10 13 11 13 11 11 12 11 12 9 13 9 13 7 14 7 14 5 15 5"/>
        <polygon class="cls-4" points="15 13 15 16 14 16 14 18 13 18 13 20 12 20 12 22 10 22 10 21 11 21 11 19 12 19 12 17 13 17 13 15 14 15 14 13 15 13"/>
        <rect class="cls-4" x="10.5" y="16.5" width="2" height="1" transform="translate(28.5 5.5) rotate(90)"/>
        <rect class="cls-4" x="9.5" y="18.5" width="2" height="1" transform="translate(29.5 8.5) rotate(90)"/>
        <rect class="cls-1" x="26" y="24" width="1" height="1" transform="translate(51 -2) rotate(90)"/>
        <rect class="cls-1" x="28" y="24" width="1" height="1" transform="translate(53 -4) rotate(90)"/>
        <rect class="cls-4" x="9" y="20" width="1" height="2"/>
        <rect class="cls-4" x="11.5" y="14.5" width="2" height="1" transform="translate(27.5 2.5) rotate(90)"/>
        <rect class="cls-4" x="12.5" y="12.5" width="2" height="1" transform="translate(26.5 -.5) rotate(90)"/>
        <rect class="cls-4" x="13.5" y="10.5" width="2" height="1" transform="translate(25.5 -3.5) rotate(90)"/>
      </g>
      <polygon class="cls-2" points="45 0 45 3 44 3 44 5 43 5 43 7 42 7 42 9 41 9 41 11 40 11 40 13 39 13 39 15 38 15 38 17 36 17 36 16 34 16 34 15 32 15 32 14 30 14 30 13 28 13 28 12 26 12 26 11 24 11 24 10 22 10 22 9 20 9 20 8 18 8 18 7 16 7 16 6 14 6 14 4 15 4 15 2 16 2 16 0 45 0"/>
    </g>
  </g>
</svg>